<svg width="29" height="22" viewBox="0 0 29 22" fill="none" xmlns="http://www.w3.org/2000/svg">
<path d="M5.39418 18H2.42827L6.94744 4.90909H10.5142L15.027 18H12.0611L8.78196 7.90057H8.67969L5.39418 18ZM5.20881 12.8544H12.2145V15.0149H5.20881V12.8544ZM16.413 18V7.09091H18.6822V11.1925H18.7514C18.8509 10.9723 18.9947 10.7486 19.1829 10.5213C19.3746 10.2905 19.6232 10.0987 19.9286 9.94602C20.2376 9.78977 20.6211 9.71165 21.0792 9.71165C21.6758 9.71165 22.2262 9.8679 22.7305 10.1804C23.2347 10.4893 23.6378 10.9563 23.9396 11.5813C24.2415 12.2028 24.3924 12.9822 24.3924 13.9197C24.3924 14.8324 24.245 15.603 23.9503 16.2315C23.6591 16.8565 23.2614 17.3306 22.7571 17.6538C22.2564 17.9734 21.6953 18.1332 21.0739 18.1332C20.6335 18.1332 20.2589 18.0604 19.9499 17.9148C19.6445 17.7692 19.3942 17.5863 19.1989 17.3661C19.0036 17.1424 18.8544 16.9169 18.7514 16.6896H18.6502V18H16.413ZM18.6342 13.9091C18.6342 14.3956 18.7017 14.82 18.8366 15.1822C18.9716 15.5444 19.1669 15.8267 19.4226 16.0291C19.6783 16.228 19.989 16.3274 20.3548 16.3274C20.7241 16.3274 21.0366 16.2262 21.2923 16.0238C21.5479 15.8178 21.7415 15.5337 21.8729 15.1715C22.0078 14.8058 22.0753 14.3849 22.0753 13.9091C22.0753 13.4368 22.0096 13.0213 21.8782 12.6626C21.7468 12.304 21.5533 12.0234 21.2976 11.821C21.0419 11.6186 20.7276 11.5174 20.3548 11.5174C19.9854 11.5174 19.6729 11.6151 19.4173 11.8104C19.1651 12.0057 18.9716 12.2827 18.8366 12.6413C18.7017 13 18.6342 13.4226 18.6342 13.9091Z" fill="white"/>
</svg>
