<svg width="40" height="21" viewBox="0 0 40 21" fill="none" xmlns="http://www.w3.org/2000/svg">
<path d="M3.12216 18H1.46023L6.26705 4.90909H7.90341L12.7102 18H11.0483L7.13636 6.98011H7.03409L3.12216 18ZM3.7358 12.8864H10.4347V14.2926H3.7358V12.8864ZM14.7493 18V4.90909H16.2578V9.74148H16.3857C16.4964 9.57102 16.6499 9.35369 16.8459 9.08949C17.0462 8.82102 17.3317 8.58239 17.7024 8.37358C18.0774 8.16051 18.5845 8.05398 19.2237 8.05398C20.0504 8.05398 20.7791 8.26065 21.4098 8.67401C22.0405 9.08736 22.5327 9.6733 22.8864 10.4318C23.2401 11.1903 23.4169 12.0852 23.4169 13.1165C23.4169 14.1562 23.2401 15.0575 22.8864 15.8203C22.5327 16.5788 22.0426 17.1669 21.4162 17.5845C20.7898 17.9979 20.0675 18.2045 19.2493 18.2045C18.6186 18.2045 18.1136 18.1001 17.7344 17.8913C17.3551 17.6783 17.0632 17.4375 16.8587 17.169C16.6541 16.8963 16.4964 16.6705 16.3857 16.4915H16.2067V18H14.7493ZM16.2322 13.0909C16.2322 13.8324 16.3409 14.4865 16.5582 15.0533C16.7756 15.6158 17.093 16.0568 17.5107 16.3764C17.9283 16.6918 18.4396 16.8494 19.0447 16.8494C19.6754 16.8494 20.2017 16.6832 20.6236 16.3509C21.0497 16.0142 21.3693 15.5625 21.5824 14.9957C21.7997 14.4247 21.9084 13.7898 21.9084 13.0909C21.9084 12.4006 21.8018 11.7784 21.5888 11.2244C21.38 10.6662 21.0625 10.2251 20.6364 9.90128C20.2145 9.57315 19.6839 9.40909 19.0447 9.40909C18.4311 9.40909 17.9155 9.56463 17.4979 9.87571C17.0803 10.1825 16.7649 10.6129 16.5518 11.1669C16.3388 11.7166 16.2322 12.358 16.2322 13.0909ZM29.7131 18.2045C28.7926 18.2045 28 17.9872 27.3352 17.5526C26.6705 17.1179 26.1591 16.5192 25.8011 15.7564C25.4432 14.9936 25.2642 14.1222 25.2642 13.142C25.2642 12.1449 25.4474 11.2649 25.8139 10.5021C26.1847 9.73509 26.7003 9.13636 27.3608 8.70597C28.0256 8.27131 28.8011 8.05398 29.6875 8.05398C30.3778 8.05398 31 8.18182 31.554 8.4375C32.108 8.69318 32.5618 9.05114 32.9155 9.51136C33.2692 9.97159 33.4886 10.5085 33.5739 11.1222H32.0653C31.9503 10.6747 31.6946 10.2784 31.2983 9.93324C30.9063 9.58381 30.3778 9.40909 29.7131 9.40909C29.125 9.40909 28.6094 9.5625 28.1662 9.86932C27.7273 10.1719 27.3842 10.6001 27.1371 11.1541C26.8942 11.7038 26.7727 12.3494 26.7727 13.0909C26.7727 13.8494 26.892 14.5099 27.1307 15.0724C27.3736 15.6349 27.7145 16.0717 28.1534 16.3828C28.5966 16.6939 29.1165 16.8494 29.7131 16.8494C30.1051 16.8494 30.4609 16.7812 30.7805 16.6449C31.1001 16.5085 31.3707 16.3125 31.5923 16.0568C31.8139 15.8011 31.9716 15.4943 32.0653 15.1364H33.5739C33.4886 15.7159 33.2777 16.2379 32.9411 16.7024C32.6087 17.1626 32.1676 17.5291 31.6179 17.8018C31.0724 18.0703 30.4375 18.2045 29.7131 18.2045Z" fill="white"/>
<path d="M1 12H35" stroke="white" stroke-width="0.5" stroke-linecap="round"/>
</svg>
