<svg width="29" height="22" viewBox="0 0 29 22" fill="none" xmlns="http://www.w3.org/2000/svg">
<path d="M4.12216 18H2.46023L7.26705 4.90909H8.90341L13.7102 18H12.0483L8.13636 6.98011H8.03409L4.12216 18ZM4.7358 12.8864H11.4347V14.2926H4.7358V12.8864ZM15.7493 18V4.90909H20.326C21.2379 4.90909 21.9901 5.06676 22.5824 5.3821C23.1747 5.69318 23.6158 6.11293 23.9055 6.64134C24.1953 7.16548 24.3402 7.74716 24.3402 8.38636C24.3402 8.94886 24.2401 9.41335 24.0398 9.77983C23.8438 10.1463 23.5838 10.4361 23.2599 10.6491C22.9403 10.8622 22.593 11.0199 22.218 11.1222V11.25C22.6186 11.2756 23.0213 11.4162 23.4261 11.6719C23.831 11.9276 24.1697 12.294 24.4425 12.7713C24.7152 13.2486 24.8516 13.8324 24.8516 14.5227C24.8516 15.179 24.7024 15.7692 24.4041 16.2933C24.1058 16.8175 23.6349 17.233 22.9915 17.5398C22.348 17.8466 21.5107 18 20.4794 18H15.7493ZM17.3345 16.5938H20.4794C21.5149 16.5938 22.25 16.3935 22.6847 15.9929C23.1236 15.5881 23.343 15.098 23.343 14.5227C23.343 14.0795 23.2301 13.6705 23.0043 13.2955C22.7784 12.9162 22.4567 12.6136 22.0391 12.3878C21.6214 12.1577 21.1271 12.0426 20.5561 12.0426H17.3345V16.5938ZM17.3345 10.6619H20.2749C20.7521 10.6619 21.1825 10.5682 21.5661 10.3807C21.9538 10.1932 22.2607 9.92898 22.4865 9.58807C22.7166 9.24716 22.8317 8.84659 22.8317 8.38636C22.8317 7.81108 22.6314 7.32315 22.2308 6.92259C21.8303 6.51776 21.1953 6.31534 20.326 6.31534H17.3345V10.6619Z" fill="white"/>
</svg>
