<svg width="38" height="16" viewBox="0 0 38 16" fill="none" xmlns="http://www.w3.org/2000/svg">
<path d="M36.25 9C36.8023 9 37.25 8.55228 37.25 8C37.25 7.44772 36.8023 7 36.25 7V9ZM1.04289 7.29289C0.652369 7.68342 0.652369 8.31658 1.04289 8.70711L7.40685 15.0711C7.79738 15.4616 8.43054 15.4616 8.82107 15.0711C9.21159 14.6805 9.21159 14.0474 8.82107 13.6569L3.16421 8L8.82107 2.34315C9.21159 1.95262 9.21159 1.31946 8.82107 0.928932C8.43054 0.538408 7.79738 0.538408 7.40685 0.928932L1.04289 7.29289ZM36.25 7L1.75 7V9L36.25 9V7Z" fill="white"/>
</svg>
