<svg width="16" height="19" viewBox="0 0 16 19" fill="none" xmlns="http://www.w3.org/2000/svg">
<path d="M0.741 2.65V1.966H5.035C7.961 1.966 9.481 1.97233 9.595 1.985C10.469 2.03567 11.2417 2.232 11.913 2.574C12.5717 2.916 13.0657 3.39733 13.395 4.018C13.509 4.246 13.5913 4.493 13.642 4.759C13.7053 5.07567 13.7117 5.41767 13.661 5.785C13.5217 6.355 13.2303 6.84267 12.787 7.248C12.293 7.65333 11.704 7.94467 11.02 8.122L10.811 8.179L10.944 8.198C12.1473 8.40067 13.034 8.83767 13.604 9.509C13.9207 9.90167 14.136 10.345 14.25 10.839C14.2753 10.953 14.288 11.1367 14.288 11.39C14.3007 11.922 14.174 12.4413 13.908 12.948C13.3633 13.9867 12.3753 14.6327 10.944 14.886C10.8553 14.8987 10.7603 14.9113 10.659 14.924C10.317 14.9747 8.53733 15 5.32 15H0.741V14.316V13.632H1.767H2.793V8.483V3.334H1.767H0.741V2.65ZM9.386 3.391L9.253 3.353L7.505 3.334H5.757V5.481V7.647H7.125C8.075 7.647 8.588 7.64067 8.664 7.628C9.62667 7.514 10.222 6.982 10.45 6.032C10.45 5.994 10.4563 5.956 10.469 5.918C10.545 5.60133 10.5577 5.27833 10.507 4.949C10.4057 4.113 10.032 3.59367 9.386 3.391ZM9.709 8.863L9.576 8.806H7.657H5.757V11.219V13.632H7.448C8.71467 13.632 9.45567 13.6003 9.671 13.537C10.507 13.271 10.9567 12.6187 11.02 11.58C11.0327 11.428 11.0327 11.2697 11.02 11.105C10.982 10.649 10.906 10.269 10.792 9.965C10.564 9.40767 10.203 9.04033 9.709 8.863Z" fill="white"/>
</svg>
