<svg width="16" height="16" viewBox="0 0 16 16" fill="none" xmlns="http://www.w3.org/2000/svg">
<line x1="6.16675" y1="3.7489" x2="14.5001" y2="3.7489" stroke="white" stroke-linecap="round"/>
<line x1="6.16675" y1="8.62402" x2="14.5001" y2="8.62402" stroke="white" stroke-linecap="round"/>
<line x1="6.16675" y1="13.499" x2="14.5001" y2="13.499" stroke="white" stroke-linecap="round"/>
<path d="M4.06111 2.625C4.06111 3.49693 3.38502 4.2 2.55556 4.2C1.7261 4.2 1.05 3.49693 1.05 2.625C1.05 1.75307 1.7261 1.05 2.55556 1.05C3.38502 1.05 4.06111 1.75307 4.06111 2.625Z" stroke="#D3D3D3" stroke-width="0.1"/>
<path d="M4.06111 7.5C4.06111 8.37193 3.38502 9.075 2.55556 9.075C1.7261 9.075 1.05 8.37193 1.05 7.5C1.05 6.62807 1.7261 5.925 2.55556 5.925C3.38502 5.925 4.06111 6.62807 4.06111 7.5Z" stroke="#D3D3D3" stroke-width="0.1"/>
<path d="M4.06111 12.375C4.06111 13.2469 3.38502 13.95 2.55556 13.95C1.7261 13.95 1.05 13.2469 1.05 12.375C1.05 11.5031 1.7261 10.8 2.55556 10.8C3.38502 10.8 4.06111 11.5031 4.06111 12.375Z" stroke="#D3D3D3" stroke-width="0.1"/>
</svg>
