<svg width="29" height="24" viewBox="0 0 29 24" fill="none" xmlns="http://www.w3.org/2000/svg">
<rect y="2" width="29" height="19" rx="2" fill="url(#paint0_linear_975_951)"/>
<path d="M5.77131 19H2.47585L7.49716 4.45455H11.4602L16.4744 19H13.179L9.53551 7.77841H9.42188L5.77131 19ZM5.56534 13.2827H13.3494V15.6832H5.56534V13.2827ZM17.9091 19V8.09091H20.1783V12.1925H20.2475C20.3469 11.9723 20.4908 11.7486 20.679 11.5213C20.8707 11.2905 21.1193 11.0987 21.4247 10.946C21.7337 10.7898 22.1172 10.7116 22.5753 10.7116C23.1719 10.7116 23.7223 10.8679 24.2266 11.1804C24.7308 11.4893 25.1339 11.9563 25.4357 12.5813C25.7376 13.2028 25.8885 13.9822 25.8885 14.9197C25.8885 15.8324 25.7411 16.603 25.4464 17.2315C25.1552 17.8565 24.7575 18.3306 24.2532 18.6538C23.7525 18.9734 23.1914 19.1332 22.57 19.1332C22.1296 19.1332 21.755 19.0604 21.446 18.9148C21.1406 18.7692 20.8903 18.5863 20.695 18.3661C20.4996 18.1424 20.3505 17.9169 20.2475 17.6896H20.1463V19H17.9091ZM20.1303 14.9091C20.1303 15.3956 20.1978 15.82 20.3327 16.1822C20.4677 16.5444 20.663 16.8267 20.9187 17.0291C21.1744 17.228 21.4851 17.3274 21.8509 17.3274C22.2202 17.3274 22.5327 17.2262 22.7884 17.0238C23.044 16.8178 23.2376 16.5337 23.369 16.1715C23.5039 15.8058 23.5714 15.3849 23.5714 14.9091C23.5714 14.4368 23.5057 14.0213 23.3743 13.6626C23.2429 13.304 23.0494 13.0234 22.7937 12.821C22.538 12.6186 22.2237 12.5174 21.8509 12.5174C21.4815 12.5174 21.169 12.6151 20.9134 12.8104C20.6612 13.0057 20.4677 13.2827 20.3327 13.6413C20.1978 14 20.1303 14.4226 20.1303 14.9091Z" fill="white"/>
<defs>
<linearGradient id="paint0_linear_975_951" x1="14.5" y1="2" x2="14.5" y2="21" gradientUnits="userSpaceOnUse">
<stop stop-color="#4D3EF4"/>
<stop offset="1" stop-color="#7154E4"/>
</linearGradient>
</defs>
</svg>
