<svg width="16" height="18" viewBox="0 0 16 18" fill="none" xmlns="http://www.w3.org/2000/svg">
<path d="M6.629 2.061C6.667 2.03567 6.77467 2.023 6.952 2.023C8.13 2.07367 9.441 2.08633 10.885 2.061L12.329 2.023H12.538L12.595 2.08C12.6457 2.13067 12.671 2.18133 12.671 2.232C12.671 2.43467 12.6077 2.68167 12.481 2.973C12.4557 3.049 12.272 3.087 11.93 3.087C11.8667 3.087 11.7907 3.087 11.702 3.087C10.9547 3.09967 10.5367 3.15033 10.448 3.239L10.372 3.296L9.08 8.54C8.206 12.0107 7.769 13.765 7.769 13.803C7.75633 13.841 7.81333 13.8663 7.94 13.879C8.10467 13.9043 8.42133 13.9233 8.89 13.936C9.37133 13.936 9.63733 13.9803 9.688 14.069C9.70067 14.107 9.68167 14.2527 9.631 14.506C9.56767 14.7467 9.51067 14.8923 9.46 14.943L9.403 15H9.099C7.64233 14.9367 5.98933 14.9303 4.14 14.981C3.70933 14.9937 3.46867 14.9557 3.418 14.867C3.40533 14.829 3.42433 14.6833 3.475 14.43C3.551 14.1767 3.60167 14.031 3.627 13.993L3.703 13.936H4.368C5.03933 13.9233 5.43833 13.8853 5.565 13.822C5.603 13.8093 5.64733 13.7777 5.698 13.727L8.32 3.22C8.32 3.20733 8.30733 3.18833 8.282 3.163C8.18067 3.125 7.826 3.09967 7.218 3.087C6.724 3.087 6.458 3.049 6.42 2.973C6.39467 2.935 6.40733 2.78933 6.458 2.536C6.52133 2.27 6.57833 2.11167 6.629 2.061Z" fill="white"/>
</svg>
